<?xml version="1.0" encoding="UTF-8"?><svg id="Layer_2" xmlns="http://www.w3.org/2000/svg" viewBox="0 0 146.25 150.49"><defs><style>.cls-1{fill:#fff;}</style></defs><g id="Layer_1-2"><circle class="cls-1" cx="44.19" cy="12.32" r="12.32"/><circle class="cls-1" cx="102.66" cy="12.32" r="12.32"/><path class="cls-1" d="M73.13,70.13c-27.01,0-49.39-19.59-53.83-45.33H0c4.6,36.33,35.56,64.43,73.14,64.43,37.57,0,68.51-28.11,73.11-64.43h-19.3c-4.44,25.73-26.82,45.33-53.82,45.33Z"/><path class="cls-1" d="M10.3,125.39v4.83c-.01.84-.32,1.56-.92,2.15-.6.6-1.33.89-2.18.89-.77,0-1.44-.25-2.02-.75-.58.52-1.26.78-2.06.78-.85,0-1.58-.3-2.2-.89-.62-.59-.93-1.31-.93-2.13v-4.86h2.11v4.83c0,.27.1.5.29.7s.42.29.7.29.52-.1.71-.29c.19-.19.29-.43.29-.7,0,.14,0-.67,0-2.41v-2.41h2.11v4.95c.03.24.14.44.32.59.18.16.4.24.66.24s.5-.1.69-.29c.19-.19.28-.43.28-.71,0,.12,0-1.47,0-4.79h2.14Z"/><path class="cls-1" d="M19.67,130.14l-5.73.02c.11.36.35.67.71.92.36.25.75.37,1.17.37.54,0,1.04-.2,1.48-.61.53.54.98.99,1.34,1.34-.78.77-1.72,1.16-2.81,1.16s-2.04-.39-2.82-1.17c-.78-.78-1.17-1.72-1.17-2.82s.39-2.06,1.17-2.84c.78-.78,1.72-1.17,2.82-1.17,1.54,0,2.65.65,3.33,1.94.35.67.53,1.42.53,2.26,0,.18,0,.38-.02.61ZM17.68,128.45c-.37-.77-1-1.16-1.87-1.16s-1.49.39-1.87,1.16h3.74Z"/><path class="cls-1" d="M23.26,122.94c0,.29-.1.55-.31.76-.12.12-.75.59-1.89,1.41l-.02-2.18c0-.31.11-.57.32-.78s.48-.32.78-.32.57.11.78.32c.21.22.32.48.32.78Z"/><path class="cls-1" d="M27.12,133.25h-2.16v-11.37h2.16v11.37Z"/><path class="cls-1" d="M31.31,133.25h-2.16v-11.37h2.16v11.37Z"/><path class="cls-1" d="M46.55,129.32c0,1.11-.39,2.06-1.17,2.84-.78.78-1.72,1.17-2.82,1.17s-2-.38-2.81-1.16c-.8-.77-1.21-1.69-1.21-2.75v-7.53h2.16v3.89c.58-.31,1.2-.46,1.85-.46,1.1,0,2.04.39,2.82,1.17.78.78,1.17,1.72,1.17,2.82ZM44.44,129.32c0-.52-.18-.97-.55-1.33s-.81-.55-1.33-.55-.98.18-1.35.55c-.37.37-.55.81-.55,1.33s.18.98.55,1.35c.37.37.82.55,1.35.55s.97-.18,1.33-.55.55-.82.55-1.35Z"/><path class="cls-1" d="M55.74,130.14l-5.73.02c.11.36.35.67.71.92.36.25.75.37,1.17.37.54,0,1.04-.2,1.48-.61.53.54.98.99,1.34,1.34-.78.77-1.72,1.16-2.81,1.16s-2.04-.39-2.82-1.17c-.78-.78-1.17-1.72-1.17-2.82s.39-2.06,1.17-2.84c.78-.78,1.72-1.17,2.82-1.17,1.54,0,2.65.65,3.33,1.94.35.67.53,1.42.53,2.26,0,.18,0,.38-.02.61ZM53.75,128.45c-.37-.77-1-1.16-1.87-1.16s-1.49.39-1.87,1.16h3.74Z"/><path class="cls-1" d="M66.67,127.4h-1.24c-.4,0-.62.21-.68.65v5.2h-2.11v-5.01c0-.88.3-1.6.9-2.14.5-.45,1.04-.68,1.63-.68h1.5v1.99Z"/><path class="cls-1" d="M75.7,130.14l-5.73.02c.11.36.35.67.71.92.36.25.75.37,1.17.37.54,0,1.04-.2,1.48-.61.53.54.98.99,1.34,1.34-.78.77-1.72,1.16-2.81,1.16s-2.04-.39-2.82-1.17c-.78-.78-1.17-1.72-1.17-2.82s.39-2.06,1.17-2.84c.78-.78,1.72-1.17,2.82-1.17,1.54,0,2.65.65,3.33,1.94.35.67.53,1.42.53,2.26,0,.18,0,.38-.02.61ZM73.71,128.45c-.37-.77-1-1.16-1.87-1.16s-1.49.39-1.87,1.16h3.74Z"/><path class="cls-1" d="M84.93,128.78v4.47h-2.07v-1.29c-.26.23-.69.49-1.28.78-.65.33-1.09.49-1.33.49-.54,0-.84,0-.88-.02-.44-.07-.86-.26-1.24-.57-.39-.31-.66-.72-.82-1.22-.16-.5-.24-1.24-.24-2.23,0-1.09.39-2.01,1.16-2.76s1.71-1.13,2.8-1.13c1.01,0,1.88.33,2.62,1s1.16,1.49,1.28,2.47ZM82.89,129.2s0-.13-.03-.32c-.08-.43-.29-.79-.64-1.07-.35-.28-.74-.42-1.18-.42-.52,0-.96.18-1.33.54s-.54.8-.54,1.33c0,.94.03,1.49.1,1.65.11.28.31.42.59.41.42-.01,1.08-.36,1.97-1.04.42-.33.77-.69,1.05-1.07Z"/><path class="cls-1" d="M94.47,121.89v7.57c-.04,1.08-.45,1.99-1.22,2.75-.77.75-1.7,1.13-2.79,1.13s-2.04-.39-2.82-1.17c-.78-.78-1.17-1.73-1.17-2.84s.39-2.04,1.17-2.82c.78-.78,1.72-1.17,2.82-1.17.67,0,1.29.15,1.87.46v-3.89h2.14ZM92.36,129.32c0-.52-.18-.97-.55-1.33s-.82-.55-1.35-.55-.97.18-1.33.55c-.37.37-.55.81-.55,1.33s.18.98.55,1.35c.37.37.81.55,1.33.55s.98-.18,1.35-.55.55-.82.55-1.35Z"/><path class="cls-1" d="M104.21,136.66h-2.16v-3.88c-.59.32-1.22.48-1.89.48-1.1,0-2.04-.39-2.82-1.16-.78-.78-1.17-1.72-1.17-2.83v-3.86h2.09l.02,3.86c0,.53.18.98.55,1.35.37.37.81.55,1.33.55.49,0,.91-.16,1.27-.48.36-.32.56-.72.62-1.2l-.02-4.08h2.18v11.25Z"/><path class="cls-1" d="M118.08,130.75c0,.66-.22,1.23-.65,1.72-.44.49-.98.75-1.62.8h-2.4c-1.1-.14-1.65-.77-1.65-1.9v-.48l1.99.02c.01.07.02.12.03.17.04.11.13.17.25.17l1.39.02c.12,0,.24-.06.33-.18.1-.12.14-.25.14-.38,0-.33-.16-.49-.48-.49h-1.72c-.62-.01-1.16-.24-1.62-.69-.45-.45-.68-1-.68-1.66s.21-1.23.65-1.71c.43-.48.97-.75,1.62-.79h2.57c.41.03.77.26,1.1.67.32.41.49.85.5,1.3l.02.42h-1.89c-.02-.31-.16-.46-.41-.46h-1.48c-.31,0-.46.16-.46.48,0,.14.04.26.14.37s.2.17.32.17l1.58.03c.62.01,1.18.25,1.67.71s.74,1.03.74,1.68Z"/><path class="cls-1" d="M127.28,129.34c0,1.1-.39,2.04-1.16,2.82-.78.78-1.72,1.17-2.83,1.17s-2.04-.39-2.82-1.17c-.78-.78-1.17-1.72-1.17-2.82s.39-2.06,1.17-2.84c.78-.78,1.72-1.17,2.82-1.17s2.05.39,2.83,1.17c.78.78,1.16,1.73,1.16,2.84ZM125.19,129.34c0-.53-.19-.98-.56-1.35s-.82-.55-1.34-.55-.97.18-1.33.55c-.37.37-.55.82-.55,1.35s.18.97.55,1.33c.37.37.81.55,1.33.55s.97-.18,1.34-.55.56-.81.56-1.33Z"/><path class="cls-1" d="M136.63,129.34c0,1.1-.39,2.04-1.16,2.82-.78.78-1.72,1.17-2.83,1.17s-2.04-.39-2.82-1.17c-.78-.78-1.17-1.72-1.17-2.82s.39-2.06,1.17-2.84c.78-.78,1.72-1.17,2.82-1.17s2.05.39,2.83,1.17c.78.78,1.16,1.73,1.16,2.84ZM134.54,129.34c0-.53-.19-.98-.56-1.35s-.82-.55-1.34-.55-.97.18-1.33.55c-.37.37-.55.82-.55,1.35s.18.97.55,1.33c.37.37.81.55,1.33.55s.97-.18,1.34-.55.56-.81.56-1.33Z"/><path class="cls-1" d="M146.25,133.25h-2.11l-.02-3.89c0-.53-.19-.99-.56-1.36s-.83-.56-1.36-.56c-.49,0-.91.16-1.28.49-.36.32-.57.73-.61,1.21l-.02,4.11h-2.14v-3.94c.01-1.11.41-2.05,1.21-2.83.79-.78,1.74-1.17,2.84-1.17s2.08.39,2.86,1.18c.79.79,1.18,1.74,1.18,2.87v3.89Z"/><path class="cls-1" d="M21.28,143.11h.79v2.07c.14-.14.3-.26.47-.35.16-.09.34-.13.54-.13.48.01.83.19,1.06.53.11.13.18.3.22.5.04.21.06.55.06,1.04s-.02.82-.06,1.03c-.04.22-.12.39-.22.52-.11.16-.25.28-.43.38-.17.1-.38.15-.63.15-.41-.01-.75-.17-1.01-.47v.42h-.79v-5.7ZM22.85,145.51c-.18,0-.32.04-.42.11-.11.08-.19.17-.24.3-.05.12-.08.26-.09.4-.02.14-.02.29-.02.45,0,.14,0,.29.02.44.01.15.05.29.09.41.05.12.13.22.24.3.1.08.24.12.42.12.19,0,.33-.04.44-.11.11-.08.19-.17.23-.29.05-.12.08-.26.1-.42,0-.15,0-.3,0-.45,0-.16,0-.32,0-.47-.02-.14-.05-.28-.1-.4-.04-.12-.12-.22-.23-.29-.11-.07-.26-.1-.44-.1Z"/><path class="cls-1" d="M25.43,144.75h.79v2.42c0,.27.07.49.22.64.15.15.33.23.56.23s.41-.08.56-.23c.15-.15.22-.37.22-.64v-2.42h.79v4.05h-.79v-.43h-.01c-.26.32-.6.48-1.02.48-.33,0-.62-.13-.88-.37-.29-.23-.43-.58-.44-1.04v-2.7Z"/><path class="cls-1" d="M29.75,143.11h.79v.81h-.79v-.81ZM29.75,144.75h.79v4.05h-.79v-4.05Z"/><path class="cls-1" d="M31.65,143.11h.79v4.65c0,.19.1.28.3.28h.27v.77h-.35c-.29,0-.52-.07-.71-.22-.2-.15-.29-.4-.29-.76v-4.71Z"/><path class="cls-1" d="M36.06,148.38c-.26.3-.6.46-1.02.47-.24,0-.44-.06-.61-.15-.18-.09-.32-.22-.44-.38-.11-.13-.18-.3-.22-.52-.04-.21-.06-.55-.06-1.03s.02-.83.06-1.04c.04-.21.11-.38.22-.5.22-.34.57-.52,1.05-.53.2,0,.39.04.56.13.16.09.31.21.46.35v-2.07h.79v5.7h-.79v-.42ZM35.28,145.51c-.19,0-.33.03-.43.1-.11.07-.19.17-.24.29-.05.12-.08.26-.09.4-.02.15-.02.31-.02.47s0,.3.02.45c.01.15.05.29.09.42.05.12.13.21.24.29.1.07.24.11.43.11s.33-.04.44-.12c.11-.08.18-.17.22-.3.05-.12.08-.26.1-.41,0-.15,0-.3,0-.44,0-.16,0-.31,0-.45-.02-.14-.05-.28-.1-.4-.04-.12-.12-.22-.22-.3s-.26-.11-.44-.11Z"/><path class="cls-1" d="M37.89,143.11h.79v.81h-.79v-.81ZM37.89,144.75h.79v4.05h-.79v-4.05Z"/><path class="cls-1" d="M39.78,144.75h.79v.43h.01c.26-.32.6-.48,1.02-.48.33,0,.62.12.89.36.27.24.41.59.42,1.05v2.7h-.79v-2.42c0-.28-.07-.5-.22-.65-.14-.15-.33-.23-.56-.23s-.41.08-.56.23c-.15.15-.22.37-.22.65v2.42h-.79v-4.05Z"/><path class="cls-1" d="M46.29,148.38c-.26.3-.6.46-1.01.47-.25,0-.47-.06-.63-.17-.18-.1-.31-.21-.41-.33-.1-.13-.18-.3-.22-.49-.05-.19-.07-.55-.07-1.09s.02-.91.07-1.11c.04-.19.12-.35.22-.48.09-.13.23-.24.41-.34.17-.1.38-.15.63-.15.39,0,.73.16,1.01.48v-.43h.79v3.96c-.01.61-.18,1.06-.51,1.34-.33.29-.73.44-1.19.44-.53-.01-.99-.24-1.36-.68l.61-.5c.1.1.22.18.35.25.13.08.27.12.42.12.27,0,.49-.08.65-.23.16-.16.24-.37.25-.65v-.42ZM44.73,146.78c0,.31,0,.53.03.64.02.12.06.22.12.31.05.07.13.14.24.2.1.07.23.11.39.11s.28-.04.39-.11c.1-.06.18-.13.24-.2.07-.08.11-.18.13-.31.02-.12.02-.33.02-.64s0-.54-.02-.66c-.02-.12-.07-.22-.13-.3-.05-.07-.13-.15-.24-.22-.1-.06-.23-.09-.39-.1-.15,0-.28.04-.39.1-.11.07-.19.14-.24.22-.07.08-.11.17-.12.3-.02.12-.03.34-.03.66Z"/><path class="cls-1" d="M50.26,147.57c.32.35.74.52,1.24.52.23,0,.41-.04.56-.14.14-.09.22-.22.22-.38,0-.15-.04-.25-.13-.3-.09-.06-.21-.09-.35-.1l-.7-.06c-.33-.03-.6-.15-.81-.34-.21-.19-.32-.46-.33-.81,0-.42.15-.73.43-.94.27-.21.62-.31,1.04-.31.18,0,.34.01.49.04.14.03.28.06.41.11.24.1.46.24.65.41l-.49.59c-.15-.11-.31-.21-.48-.28-.17-.07-.36-.1-.58-.1-.25,0-.42.04-.52.14-.1.09-.16.21-.16.35,0,.09.03.17.12.24.08.08.21.12.4.14l.65.05c.41.03.71.16.89.38.17.22.25.5.25.83,0,.39-.16.7-.47.91-.3.22-.69.33-1.16.34-.64,0-1.22-.24-1.73-.73l.55-.56Z"/><path class="cls-1" d="M53.79,146.77c0-.43.03-.76.1-.99.07-.22.18-.41.33-.57.11-.13.26-.25.45-.36.19-.1.44-.15.74-.16.31,0,.56.06.75.16.19.11.33.23.44.36.16.15.27.34.33.57.06.23.09.56.09.98s-.03.75-.09.98c-.07.22-.18.42-.33.58-.05.06-.11.12-.19.18-.07.07-.15.12-.25.17-.19.11-.44.17-.75.18-.3,0-.55-.06-.74-.18-.19-.1-.35-.22-.45-.34-.15-.16-.25-.36-.33-.58-.07-.22-.1-.55-.1-.98ZM56.24,146.78c0-.29-.01-.5-.04-.63-.03-.13-.08-.24-.16-.34-.06-.09-.14-.16-.26-.22-.11-.05-.23-.08-.38-.08-.13,0-.26.03-.37.08-.11.05-.2.12-.26.22-.07.1-.12.21-.15.34-.03.13-.04.34-.04.63s.01.49.04.62c.03.13.08.25.15.35.07.08.16.15.26.21.11.06.24.09.37.09.14,0,.27-.03.38-.09.11-.06.2-.13.26-.21.08-.1.13-.22.16-.35.02-.13.04-.33.04-.61Z"/><path class="cls-1" d="M57.96,144.75h.79v.43h.02c.27-.32.62-.48,1.06-.48.28,0,.51.05.68.14.17.1.32.23.46.39.32-.36.74-.54,1.28-.53.34,0,.64.12.92.36.28.24.42.59.43,1.05v2.7h-.79v-2.42c0-.28-.08-.5-.23-.65-.15-.15-.35-.23-.58-.23s-.43.08-.59.23c-.16.15-.23.37-.23.65v2.42h-.79v-2.42c0-.28-.08-.5-.23-.65-.15-.15-.35-.23-.59-.23s-.43.08-.58.23c-.16.15-.24.37-.24.65v2.42h-.79v-4.05Z"/><path class="cls-1" d="M65.4,147.09c0,.33.09.57.27.74.17.17.39.26.67.26.32,0,.61-.13.86-.39l.57.5c-.4.44-.87.66-1.41.66-.21,0-.41-.03-.61-.09-.1-.03-.19-.08-.29-.14-.1-.05-.19-.11-.28-.18-.17-.15-.3-.36-.4-.63-.11-.26-.17-.6-.17-1.02s.05-.73.15-1c.1-.27.22-.48.38-.64.16-.16.33-.27.53-.34.19-.07.38-.11.57-.11.45,0,.83.16,1.14.46.31.3.47.72.48,1.26v.67h-2.45ZM67.06,146.41c0-.32-.09-.56-.25-.72-.15-.15-.35-.23-.58-.23s-.43.08-.58.23c-.15.16-.23.4-.25.72h1.66Z"/><path class="cls-1" d="M68.85,143.52h.79v1.23h.58v.62h-.58v2.36c0,.21.09.31.28.3h.3v.77h-.41c-.28,0-.5-.09-.68-.27-.18-.17-.27-.41-.27-.73v-2.43h-.4v-.62h.4v-1.23Z"/><path class="cls-1" d="M71.03,143.11h.79v2.07h.01c.26-.32.6-.48,1.02-.48.33,0,.62.12.89.36.27.24.41.59.42,1.05v2.7h-.79v-2.42c0-.28-.07-.5-.22-.65-.14-.15-.33-.23-.56-.23s-.41.08-.56.23c-.15.15-.22.37-.22.65v2.42h-.79v-5.7Z"/><path class="cls-1" d="M75.35,143.11h.79v.81h-.79v-.81ZM75.35,144.75h.79v4.05h-.79v-4.05Z"/><path class="cls-1" d="M77.24,144.75h.79v.43h.01c.26-.32.6-.48,1.02-.48.33,0,.62.12.89.36.27.24.41.59.42,1.05v2.7h-.79v-2.42c0-.28-.07-.5-.22-.65-.14-.15-.33-.23-.56-.23s-.41.08-.56.23c-.15.15-.22.37-.22.65v2.42h-.79v-4.05Z"/><path class="cls-1" d="M83.75,148.38c-.26.3-.6.46-1.01.47-.25,0-.47-.06-.63-.17-.18-.1-.31-.21-.41-.33-.1-.13-.18-.3-.22-.49-.05-.19-.07-.55-.07-1.09s.02-.91.07-1.11c.04-.19.12-.35.22-.48.09-.13.23-.24.41-.34.17-.1.38-.15.63-.15.39,0,.73.16,1.01.48v-.43h.79v3.96c-.01.61-.18,1.06-.51,1.34-.33.29-.73.44-1.19.44-.53-.01-.99-.24-1.36-.68l.61-.5c.1.1.22.18.35.25.13.08.27.12.42.12.27,0,.49-.08.65-.23.16-.16.24-.37.25-.65v-.42ZM82.19,146.78c0,.31,0,.53.03.64.02.12.06.22.12.31.05.07.13.14.24.2.1.07.23.11.39.11s.28-.04.39-.11c.1-.06.18-.13.24-.2.07-.08.11-.18.13-.31.02-.12.02-.33.02-.64s0-.54-.02-.66c-.02-.12-.07-.22-.13-.3-.05-.07-.13-.15-.24-.22-.1-.06-.23-.09-.39-.1-.15,0-.28.04-.39.1-.11.07-.19.14-.24.22-.07.08-.11.17-.12.3-.02.12-.03.34-.03.66Z"/><path class="cls-1" d="M87.58,144.75h.79v.43h.02c.27-.32.62-.48,1.06-.48.28,0,.51.05.68.14.17.1.32.23.46.39.32-.36.74-.54,1.28-.53.34,0,.64.12.92.36.28.24.42.59.43,1.05v2.7h-.79v-2.42c0-.28-.08-.5-.23-.65-.15-.15-.35-.23-.58-.23s-.43.08-.59.23c-.16.15-.23.37-.23.65v2.42h-.79v-2.42c0-.28-.08-.5-.23-.65-.15-.15-.35-.23-.59-.23s-.43.08-.58.23c-.16.15-.24.37-.24.65v2.42h-.79v-4.05Z"/><path class="cls-1" d="M95.02,147.09c0,.33.09.57.27.74.17.17.39.26.67.26.32,0,.61-.13.86-.39l.57.5c-.4.44-.87.66-1.41.66-.21,0-.41-.03-.61-.09-.1-.03-.19-.08-.29-.14-.1-.05-.19-.11-.28-.18-.17-.15-.3-.36-.4-.63-.11-.26-.17-.6-.17-1.02s.05-.73.15-1c.1-.27.22-.48.38-.64.16-.16.33-.27.53-.34.19-.07.38-.11.57-.11.45,0,.83.16,1.14.46.31.3.47.72.48,1.26v.67h-2.45ZM96.68,146.41c0-.32-.09-.56-.25-.72-.15-.15-.35-.23-.58-.23s-.43.08-.58.23c-.15.16-.23.4-.25.72h1.66Z"/><path class="cls-1" d="M100.49,148.45h-.01c-.07.14-.19.24-.34.3-.15.07-.36.1-.63.1-.44,0-.78-.12-1.01-.36-.25-.23-.38-.52-.38-.88s.11-.62.33-.85c.22-.23.54-.35.95-.35h1.09v-.43c0-.36-.26-.53-.81-.52-.2,0-.35.02-.46.06-.12.05-.21.13-.28.25l-.62-.49c.3-.4.74-.6,1.33-.59.49,0,.89.09,1.18.29.29.2.44.55.45,1.05v2.77h-.79v-.36ZM100.49,147.09h-.95c-.46,0-.69.17-.68.49,0,.14.06.26.18.35.11.11.3.16.56.16.33,0,.56-.04.7-.12.12-.09.19-.28.19-.59v-.29Z"/><path class="cls-1" d="M102.43,144.75h.79v.43h.01c.26-.32.6-.48,1.02-.48.33,0,.62.12.89.36.27.24.41.59.42,1.05v2.7h-.79v-2.42c0-.28-.07-.5-.22-.65-.14-.15-.33-.23-.56-.23s-.41.08-.56.23c-.15.15-.22.37-.22.65v2.42h-.79v-4.05Z"/><path class="cls-1" d="M106.75,143.11h.79v.81h-.79v-.81ZM106.75,144.75h.79v4.05h-.79v-4.05Z"/><path class="cls-1" d="M108.64,144.75h.79v.43h.01c.26-.32.6-.48,1.02-.48.33,0,.62.12.89.36.27.24.41.59.42,1.05v2.7h-.79v-2.42c0-.28-.07-.5-.22-.65-.14-.15-.33-.23-.56-.23s-.41.08-.56.23c-.15.15-.22.37-.22.65v2.42h-.79v-4.05Z"/><path class="cls-1" d="M115.15,148.38c-.26.3-.6.46-1.01.47-.25,0-.47-.06-.63-.17-.18-.1-.31-.21-.41-.33-.1-.13-.18-.3-.22-.49-.05-.19-.07-.55-.07-1.09s.02-.91.07-1.11c.04-.19.12-.35.22-.48.09-.13.23-.24.41-.34.17-.1.38-.15.63-.15.39,0,.73.16,1.01.48v-.43h.79v3.96c-.01.61-.18,1.06-.51,1.34-.33.29-.73.44-1.19.44-.53-.01-.99-.24-1.36-.68l.61-.5c.1.1.22.18.35.25.13.08.27.12.42.12.27,0,.49-.08.65-.23.16-.16.24-.37.25-.65v-.42ZM113.59,146.78c0,.31,0,.53.03.64.02.12.06.22.12.31.05.07.13.14.24.2.1.07.23.11.39.11s.28-.04.39-.11c.1-.06.18-.13.24-.2.07-.08.11-.18.13-.31.02-.12.02-.33.02-.64s0-.54-.02-.66c-.02-.12-.07-.22-.13-.3-.05-.07-.13-.15-.24-.22-.1-.06-.23-.09-.39-.1-.15,0-.28.04-.39.1-.11.07-.19.14-.24.22-.07.08-.11.17-.12.3-.02.12-.03.34-.03.66Z"/><path class="cls-1" d="M117.22,145.38h-.4v-.62h.4v-.54c0-.39.1-.67.31-.85.2-.17.46-.25.76-.25h.51v.77h-.45c-.24,0-.35.1-.34.34v.54h.79v.62h-.79v3.43h-.79v-3.43Z"/><path class="cls-1" d="M119.31,144.75h.79v2.42c0,.27.07.49.22.64.15.15.33.23.56.23s.41-.08.56-.23c.15-.15.22-.37.22-.64v-2.42h.79v4.05h-.79v-.43h-.01c-.26.32-.6.48-1.02.48-.33,0-.62-.13-.88-.37-.29-.23-.43-.58-.44-1.04v-2.7Z"/><path class="cls-1" d="M123.61,143.11h.79v4.65c0,.19.1.28.3.28h.27v.77h-.35c-.29,0-.52-.07-.71-.22-.2-.15-.29-.4-.29-.76v-4.71Z"/></g></svg>