<?xml version="1.0" encoding="UTF-8"?><svg id="Layer_2" xmlns="http://www.w3.org/2000/svg" viewBox="0 0 259.19 155.37"><defs><style>.cls-1{fill:#fff;}</style></defs><g id="Layer_1-2"><circle class="cls-1" cx="100.29" cy="12.47" r="12.47"/><circle class="cls-1" cx="159.5" cy="12.47" r="12.47"/><path class="cls-1" d="M129.61,71.02c-27.35,0-50.02-19.84-54.52-45.91h-19.55c4.66,36.79,36.02,65.25,74.07,65.25,38.04,0,69.39-28.47,74.04-65.25h-19.54c-4.49,26.06-27.16,45.9-54.5,45.91Z"/><path class="cls-1" d="M17.11,140.18c0,1.69-.56,3.16-1.68,4.41-1.12,1.25-2.51,1.94-4.17,2.05h-6.15c-2.82-.35-4.24-1.98-4.24-4.89v-1.22l5.11.05c.03.17.06.32.09.44.12.29.33.44.65.44l3.58.04c.32,0,.6-.15.85-.46.25-.3.37-.63.37-.98,0-.85-.41-1.27-1.22-1.27h-4.41c-1.6-.03-2.98-.62-4.15-1.77-1.16-1.15-1.75-2.57-1.75-4.26s.55-3.15,1.66-4.39c1.11-1.24,2.49-1.91,4.15-2.03h6.59c1.05.09,1.99.66,2.82,1.72.83,1.06,1.26,2.18,1.29,3.34l.05,1.09h-4.85c-.06-.78-.41-1.18-1.05-1.18h-3.8c-.78,0-1.18.41-1.18,1.22,0,.35.12.67.35.96s.51.44.83.44l4.06.09c1.6.03,3.03.64,4.3,1.84s1.9,2.63,1.9,4.32Z"/><path class="cls-1" d="M40.33,138.61l-14.71.05c.29.93.9,1.72,1.81,2.36.92.64,1.91.96,2.99.96,1.4,0,2.66-.52,3.8-1.57,1.37,1.4,2.52,2.55,3.45,3.45-2.01,1.98-4.41,2.97-7.2,2.97s-5.24-1-7.25-3.01c-2.01-2.01-3.01-4.42-3.01-7.25s1.01-5.28,3.01-7.29c2.01-2.01,4.42-3.01,7.25-3.01,3.96,0,6.81,1.66,8.56,4.98.9,1.72,1.35,3.65,1.35,5.81,0,.46-.02.99-.05,1.57ZM35.23,134.29c-.96-1.98-2.56-2.97-4.8-2.97s-3.81.99-4.8,2.97h9.6Z"/><path class="cls-1" d="M63.99,138.61l-14.71.05c.29.93.9,1.72,1.81,2.36.92.64,1.91.96,2.99.96,1.4,0,2.66-.52,3.8-1.57,1.37,1.4,2.52,2.55,3.45,3.45-2.01,1.98-4.41,2.97-7.2,2.97s-5.24-1-7.25-3.01c-2.01-2.01-3.01-4.42-3.01-7.25s1.01-5.28,3.01-7.29c2.01-2.01,4.42-3.01,7.25-3.01,3.96,0,6.81,1.66,8.56,4.98.9,1.72,1.35,3.65,1.35,5.81,0,.46-.02.99-.05,1.57ZM58.89,134.29c-.96-1.98-2.56-2.97-4.8-2.97s-3.81.99-4.8,2.97h9.6Z"/><path class="cls-1" d="M102.36,155.37h-5.54v-9.95c-1.51.81-3.13,1.22-4.85,1.22-2.82,0-5.24-1-7.24-2.99-2.01-1.99-3.01-4.42-3.01-7.27v-9.91h5.37l.04,9.91c0,1.37.47,2.52,1.42,3.47.95.95,2.09,1.42,3.43,1.42,1.25,0,2.34-.41,3.25-1.24.92-.83,1.45-1.86,1.59-3.08l-.05-10.48h5.59v28.9Z"/><path class="cls-1" d="M127.24,136.55c0,2.82-1,5.24-2.99,7.25-1.99,2.01-4.42,3.01-7.27,3.01s-5.24-1-7.25-3.01c-2.01-2.01-3.01-4.42-3.01-7.25s1.01-5.28,3.01-7.29c2.01-2.01,4.42-3.01,7.25-3.01s5.28,1,7.27,3.01c1.99,2.01,2.99,4.44,2.99,7.29ZM121.87,136.55c0-1.37-.48-2.53-1.44-3.47s-2.11-1.42-3.45-1.42-2.48.47-3.43,1.42c-.95.95-1.42,2.1-1.42,3.47s.47,2.48,1.42,3.43c.95.95,2.09,1.42,3.43,1.42s2.49-.47,3.45-1.42,1.44-2.09,1.44-3.43Z"/><path class="cls-1" d="M151.68,136.73c-.03,2.79-1.04,5.18-3.03,7.16s-4.4,2.97-7.22,2.97-5.24-1-7.24-2.99c-2.01-1.99-3.01-4.42-3.01-7.27v-10.13h5.37l.04,10.13c0,1.37.47,2.53,1.42,3.47.95.95,2.09,1.42,3.43,1.42,1.25,0,2.34-.41,3.25-1.24.92-.83,1.45-1.86,1.59-3.08l.04-10.69h5.37v10.26Z"/><path class="cls-1" d="M186.87,140.18c0,1.69-.56,3.16-1.68,4.41-1.12,1.25-2.51,1.94-4.17,2.05h-6.15c-2.82-.35-4.24-1.98-4.24-4.89v-1.22l5.11.05c.03.17.06.32.09.44.12.29.33.44.65.44l3.58.04c.32,0,.6-.15.85-.46.25-.3.37-.63.37-.98,0-.85-.41-1.27-1.22-1.27h-4.41c-1.6-.03-2.98-.62-4.15-1.77-1.16-1.15-1.75-2.57-1.75-4.26s.55-3.15,1.66-4.39c1.11-1.24,2.49-1.91,4.15-2.03h6.59c1.05.09,1.99.66,2.82,1.72.83,1.06,1.26,2.18,1.29,3.34l.05,1.09h-4.85c-.06-.78-.41-1.18-1.05-1.18h-3.8c-.78,0-1.18.41-1.18,1.22,0,.35.12.67.35.96s.51.44.83.44l4.06.09c1.6.03,3.03.64,4.3,1.84s1.9,2.63,1.9,4.32Z"/><path class="cls-1" d="M210.48,136.55c0,2.82-1,5.24-2.99,7.25-1.99,2.01-4.42,3.01-7.27,3.01s-5.24-1-7.25-3.01c-2.01-2.01-3.01-4.42-3.01-7.25s1.01-5.28,3.01-7.29c2.01-2.01,4.42-3.01,7.25-3.01s5.28,1,7.27,3.01c1.99,2.01,2.99,4.44,2.99,7.29ZM205.11,136.55c0-1.37-.48-2.53-1.44-3.47s-2.11-1.42-3.45-1.42-2.48.47-3.43,1.42c-.95.95-1.42,2.1-1.42,3.47s.47,2.48,1.42,3.43c.95.95,2.09,1.42,3.43,1.42s2.49-.47,3.45-1.42,1.44-2.09,1.44-3.43Z"/><path class="cls-1" d="M234.49,136.55c0,2.82-1,5.24-2.99,7.25-1.99,2.01-4.42,3.01-7.27,3.01s-5.24-1-7.25-3.01c-2.01-2.01-3.01-4.42-3.01-7.25s1.01-5.28,3.01-7.29c2.01-2.01,4.42-3.01,7.25-3.01s5.28,1,7.27,3.01c1.99,2.01,2.99,4.44,2.99,7.29ZM229.12,136.55c0-1.37-.48-2.53-1.44-3.47s-2.11-1.42-3.45-1.42-2.48.47-3.43,1.42c-.95.95-1.42,2.1-1.42,3.47s.47,2.48,1.42,3.43c.95.95,2.09,1.42,3.43,1.42s2.49-.47,3.45-1.42,1.44-2.09,1.44-3.43Z"/><path class="cls-1" d="M259.19,146.59h-5.41l-.04-10c0-1.37-.48-2.53-1.44-3.49s-2.12-1.44-3.49-1.44c-1.25,0-2.34.42-3.27,1.25-.93.83-1.46,1.87-1.57,3.12l-.04,10.56h-5.5v-10.13c.03-2.85,1.06-5.27,3.1-7.27,2.04-1.99,4.47-2.99,7.29-2.99s5.33,1.01,7.35,3.03c2.02,2.02,3.03,4.48,3.03,7.36v10Z"/></g></svg>