<?xml version="1.0" encoding="UTF-8"?><svg id="Layer_2" xmlns="http://www.w3.org/2000/svg" viewBox="0 0 48.4 48.4"><defs><style>.cls-1{fill:#fff;}.cls-2{fill:#5bb996;}</style></defs><g id="Layer_1-2"><circle class="cls-2" cx="24.2" cy="24.2" r="24.2"/><path class="cls-1" d="M15.87,25.9h-1.84v-3.31c-.5.27-1.04.41-1.61.41-.94,0-1.74-.33-2.41-.99-.67-.66-1-1.47-1-2.42v-3.29h1.78v3.29c.01.45.17.84.49,1.15.31.31.69.47,1.14.47.42,0,.78-.14,1.08-.41.3-.28.48-.62.53-1.02v-3.48s1.84,0,1.84,0v9.61Z"/><path class="cls-1" d="M24.29,19.7c0,.93-.35,1.72-1.01,2.38-.66.66-1.46.99-2.4.99s-1.74-.33-2.41-.99c-.67-.66-1-1.47-1-2.42v-3.37h1.78v3.37c.01.45.17.84.49,1.15.31.31.69.47,1.14.47.42,0,.78-.14,1.08-.41.3-.28.48-.62.53-1.02v-3.56h1.8v3.41Z"/><path class="cls-1" d="M31.41,17.24c-.29.35-.71.78-1.26,1.29-.33-.33-.71-.49-1.15-.49s-.82.16-1.14.47-.47.7-.47,1.15.16.82.47,1.14c.31.31.69.47,1.14.47s.86-.15,1.18-.46c.82.81,1.23,1.24,1.22,1.28-.67.66-1.47.99-2.39.99s-1.74-.33-2.41-1c-.67-.67-1-1.47-1-2.41s.33-1.76,1-2.42c.67-.67,1.47-1,2.41-1s1.74.33,2.41,1Z"/><path class="cls-1" d="M39.39,19.64c0,.94-.33,1.74-.99,2.41-.66.67-1.47,1-2.42,1s-1.74-.33-2.41-1c-.67-.67-1-1.47-1-2.41s.33-1.76,1-2.42c.67-.67,1.47-1,2.41-1s1.75.33,2.42,1c.66.67.99,1.48.99,2.42ZM37.61,19.64c0-.45-.16-.84-.48-1.15-.32-.31-.7-.47-1.15-.47s-.82.16-1.14.47-.47.7-.47,1.15.16.82.47,1.14c.31.31.69.47,1.14.47s.83-.16,1.15-.47c.32-.31.48-.69.48-1.14Z"/><path class="cls-1" d="M10.98,35.14h-1.97v-10.39h1.97v10.39Z"/><path class="cls-1" d="M19.83,31.57c0,1-.35,1.86-1.06,2.58-.71.71-1.57,1.07-2.59,1.07s-1.86-.36-2.58-1.07-1.07-1.57-1.07-2.58.36-1.88,1.07-2.59c.71-.71,1.57-1.07,2.58-1.07s1.88.36,2.59,1.07c.71.71,1.06,1.58,1.06,2.59ZM17.92,31.57c0-.49-.17-.9-.51-1.23-.34-.34-.75-.5-1.23-.5s-.88.17-1.22.5-.5.75-.5,1.23.17.88.5,1.22c.34.34.74.5,1.22.5s.89-.17,1.23-.5c.34-.34.51-.74.51-1.22Z"/><path class="cls-1" d="M27.3,28.99c-.31.37-.76.83-1.35,1.38-.35-.35-.76-.53-1.23-.53s-.88.17-1.22.5-.5.75-.5,1.23.17.88.5,1.22c.34.34.74.5,1.22.5s.92-.17,1.26-.5c.88.87,1.31,1.33,1.3,1.37-.71.7-1.57,1.06-2.56,1.06s-1.86-.36-2.58-1.07c-.71-.71-1.07-1.57-1.07-2.58s.36-1.88,1.07-2.59,1.57-1.07,2.58-1.07,1.86.36,2.58,1.07Z"/><path class="cls-1" d="M35.71,31.06v4.08h-1.89v-1.18c-.24.21-.63.45-1.16.71-.59.3-.99.45-1.21.45-.5,0-.77,0-.81-.02-.4-.06-.78-.24-1.13-.52-.35-.28-.6-.65-.75-1.11-.15-.46-.22-1.13-.22-2.03,0-.99.35-1.83,1.06-2.52.7-.69,1.56-1.03,2.56-1.03.92,0,1.72.3,2.39.91.67.61,1.06,1.36,1.16,2.26ZM33.85,31.45s0-.12-.03-.3c-.07-.39-.27-.72-.58-.98-.32-.26-.68-.39-1.08-.39-.48,0-.88.17-1.21.5s-.5.74-.5,1.21c0,.86.03,1.36.09,1.51.1.26.28.38.54.37.38-.01.98-.33,1.8-.95.38-.3.7-.63.96-.98Z"/><path class="cls-1" d="M39.39,35.14h-1.97v-10.39h1.97v10.39Z"/></g></svg>